<svg width="18" height="24" viewBox="0 0 18 24" fill="none" xmlns="http://www.w3.org/2000/svg">
<path d="M1 8.61189V22.7802H16.7295V8.61189L8.8422 2L1 8.61189Z" stroke="black" stroke-width="1.60575"/>
<path d="M5.62642 15.2239L3.72241 17.3492L5.62642 19.4744M12.2039 15.2239L14.1079 17.3492L12.2039 19.4744M9.73734 14.4683L8.00642 20.1356" stroke="black" stroke-width="1.60575"/>
<path d="M11.4863 9.93436C11.4863 11.2907 10.3125 12.3902 8.86468 12.3902C7.41682 12.3902 6.2431 11.2907 6.2431 9.93436C6.2431 8.57804 7.41682 7.47852 8.86468 7.47852C10.3125 7.47852 11.4863 8.57804 11.4863 9.93436ZM7.55429 9.93436C7.55429 10.6123 8.14097 11.1619 8.86468 11.1619C9.58839 11.1619 10.1751 10.6123 10.1751 9.93436C10.1751 9.25641 9.58839 8.70681 8.86468 8.70681C8.14097 8.70681 7.55429 9.25641 7.55429 9.93436Z" fill="black"/>
</svg>
