<svg width="28" height="28" viewBox="0 0 28 28" fill="none" xmlns="http://www.w3.org/2000/svg">
<rect width="27.7295" height="27.7802" rx="4" fill="white"/>
<path d="M6 9.61189V23.7802H21.7295V9.61189L13.8422 3L6 9.61189Z" stroke="black" stroke-width="1.60575"/>
<path d="M10.6264 16.2239L8.72241 18.3492L10.6264 20.4744M17.2039 16.2239L19.1079 18.3492L17.2039 20.4744M14.7373 15.4683L13.0064 21.1356" stroke="black" stroke-width="1.60575"/>
<path d="M16.4863 10.9344C16.4863 12.2907 15.3125 13.3902 13.8647 13.3902C12.4168 13.3902 11.2431 12.2907 11.2431 10.9344C11.2431 9.57804 12.4168 8.47852 13.8647 8.47852C15.3125 8.47852 16.4863 9.57804 16.4863 10.9344ZM12.5543 10.9344C12.5543 11.6123 13.141 12.1619 13.8647 12.1619C14.5884 12.1619 15.1751 11.6123 15.1751 10.9344C15.1751 10.2564 14.5884 9.70681 13.8647 9.70681C13.141 9.70681 12.5543 10.2564 12.5543 10.9344Z" fill="black"/>
</svg>
