<svg width="72" height="72" viewBox="0 0 72 72" fill="none" xmlns="http://www.w3.org/2000/svg">
<rect x="0.5" y="0.5" width="71" height="71" rx="35.5" stroke="#0A66C2"/>
<g clip-path="url(#clip0_31_39)">
<path d="M56.4567 12H15.5433C14.6036 12 13.7023 12.3733 13.0378 13.0378C12.3733 13.7023 12 14.6036 12 15.5433V56.4567C12 57.3964 12.3733 58.2977 13.0378 58.9622C13.7023 59.6267 14.6036 60 15.5433 60H56.4567C57.3964 60 58.2977 59.6267 58.9622 58.9622C59.6267 58.2977 60 57.3964 60 56.4567V15.5433C60 14.6036 59.6267 13.7023 58.9622 13.0378C58.2977 12.3733 57.3964 12 56.4567 12ZM26.3067 52.89H19.09V29.9667H26.3067V52.89ZM22.6933 26.79C21.8747 26.7854 21.0758 26.5384 20.3975 26.0802C19.7191 25.622 19.1917 24.9731 18.8818 24.2154C18.5718 23.4577 18.4933 22.6252 18.6561 21.8229C18.8188 21.0206 19.2156 20.2846 19.7963 19.7076C20.377 19.1306 21.1156 18.7385 21.9189 18.5809C22.7222 18.4233 23.5542 18.5072 24.3099 18.822C25.0656 19.1368 25.7111 19.6683 26.1649 20.3496C26.6188 21.0309 26.8606 21.8314 26.86 22.65C26.8677 23.1981 26.765 23.7421 26.558 24.2496C26.351 24.7571 26.044 25.2178 25.6551 25.6041C25.2663 25.9905 24.8037 26.2946 24.2948 26.4983C23.786 26.702 23.2413 26.8012 22.6933 26.79ZM52.9067 52.91H45.6933V40.3867C45.6933 36.6933 44.1233 35.5533 42.0967 35.5533C39.9567 35.5533 37.8567 37.1667 37.8567 40.48V52.91H30.64V29.9833H37.58V33.16H37.6733C38.37 31.75 40.81 29.34 44.5333 29.34C48.56 29.34 52.91 31.73 52.91 38.73L52.9067 52.91Z" fill="#0A66C2"/>
</g>
<defs>
<clipPath id="clip0_31_39">
<rect width="48" height="48" fill="white" transform="translate(12 12)"/>
</clipPath>
</defs>
</svg>
