<svg width="28" height="28" viewBox="0 0 28 28" fill="none" xmlns="http://www.w3.org/2000/svg">
<g id="link">
<path id="Vector" fill-rule="evenodd" clip-rule="evenodd" d="M17.6203 6.42073C17.8786 6.1533 18.1876 5.93999 18.5292 5.79324C18.8708 5.6465 19.2382 5.56926 19.61 5.56603C19.9818 5.5628 20.3505 5.63364 20.6946 5.77443C21.0387 5.91521 21.3513 6.12312 21.6142 6.38602C21.8771 6.64892 22.0851 6.96155 22.2258 7.30566C22.3666 7.64977 22.4375 8.01847 22.4342 8.39025C22.431 8.76203 22.3538 9.12945 22.207 9.47106C22.0603 9.81267 21.847 10.1216 21.5795 10.3799L17.3795 14.5799C16.8545 15.1048 16.1424 15.3997 15.3999 15.3997C14.6575 15.3997 13.9454 15.1048 13.4203 14.5799C13.1563 14.3249 12.8027 14.1838 12.4356 14.187C12.0685 14.1902 11.7174 14.3374 11.4578 14.597C11.1982 14.8566 11.051 15.2077 11.0478 15.5748C11.0446 15.9418 11.1857 16.2955 11.4407 16.5595C12.4909 17.6094 13.915 18.1991 15.3999 18.1991C16.8849 18.1991 18.309 17.6094 19.3591 16.5595L23.5591 12.3595C24.5792 11.3034 25.1437 9.88878 25.1309 8.42048C25.1182 6.95218 24.5292 5.54763 23.4909 4.50934C22.4526 3.47106 21.0481 2.88211 19.5798 2.86935C18.1115 2.85659 16.6969 3.42104 15.6407 4.44113L13.5407 6.54113C13.407 6.67027 13.3004 6.82475 13.227 6.99556C13.1536 7.16637 13.115 7.35007 13.1134 7.53597C13.1118 7.72186 13.1472 7.90621 13.2176 8.07826C13.288 8.25032 13.3919 8.40663 13.5234 8.53808C13.6548 8.66953 13.8111 8.77348 13.9832 8.84388C14.1553 8.91427 14.3396 8.94969 14.5255 8.94808C14.7114 8.94646 14.8951 8.90784 15.0659 8.83447C15.2367 8.7611 15.3912 8.65444 15.5203 8.52073L17.6203 6.42073ZM10.6203 13.4207C11.1454 12.8958 11.8575 12.6009 12.5999 12.6009C13.3424 12.6009 14.0545 12.8958 14.5795 13.4207C14.7087 13.5544 14.8632 13.6611 15.034 13.7345C15.2048 13.8078 15.3885 13.8465 15.5744 13.8481C15.7603 13.8497 15.9446 13.8143 16.1167 13.7439C16.2887 13.6735 16.445 13.5695 16.5765 13.4381C16.7079 13.3066 16.8119 13.1503 16.8823 12.9783C16.9527 12.8062 16.9881 12.6219 16.9865 12.436C16.9849 12.2501 16.9463 12.0664 16.8729 11.8956C16.7995 11.7248 16.6929 11.5703 16.5591 11.4411C15.509 10.3913 14.0849 9.80152 12.5999 9.80152C11.115 9.80152 9.69089 10.3913 8.64074 11.4411L4.44074 15.6411C3.90588 16.1577 3.47926 16.7756 3.18577 17.4589C2.89228 18.1421 2.7378 18.8769 2.73134 19.6205C2.72487 20.364 2.86656 21.1014 3.14814 21.7897C3.42971 22.4779 3.84553 23.1031 4.37133 23.6289C4.89713 24.1547 5.52238 24.5706 6.2106 24.8521C6.89882 25.1337 7.63622 25.2754 8.37979 25.2689C9.12335 25.2625 9.85818 25.108 10.5414 24.8145C11.2246 24.521 11.8426 24.0944 12.3591 23.5595L14.4591 21.4595C14.5929 21.3304 14.6995 21.1759 14.7729 21.0051C14.8463 20.8343 14.8849 20.6506 14.8865 20.4647C14.8881 20.2788 14.8527 20.0944 14.7823 19.9224C14.7119 19.7503 14.6079 19.594 14.4765 19.4626C14.345 19.3311 14.1887 19.2272 14.0167 19.1568C13.8446 19.0864 13.6603 19.051 13.4744 19.0526C13.2885 19.0542 13.1048 19.0928 12.934 19.1662C12.7632 19.2396 12.6087 19.3462 12.4795 19.4799L10.3795 21.5799C10.1212 21.8474 9.81228 22.0607 9.47067 22.2074C9.12906 22.3542 8.76164 22.4314 8.38986 22.4346C8.01808 22.4379 7.64938 22.367 7.30527 22.2262C6.96116 22.0854 6.64853 21.8775 6.38563 21.6146C6.12273 21.3517 5.91482 21.0391 5.77404 20.695C5.63325 20.3509 5.56241 19.9822 5.56564 19.6104C5.56887 19.2386 5.64611 18.8712 5.79286 18.5296C5.9396 18.188 6.15291 17.879 6.42034 17.6207L10.6203 13.4207Z" fill="#111928"/>
</g>
</svg>
