<svg width="163" height="37" viewBox="0 0 163 37" fill="none" xmlns="http://www.w3.org/2000/svg">
<path d="M9.86286 29.4048C7.45356 29.4048 5.52611 28.7109 4.08053 27.3231C2.65423 25.9161 1.94107 23.873 1.94107 21.1939V16.568C1.94107 13.8889 2.65423 11.8554 4.08053 10.4676C5.52611 9.06061 7.45356 8.3571 9.86286 8.3571C12.2914 8.3571 14.2189 9.06061 15.6452 10.4676C17.0908 11.8554 17.8136 13.8889 17.8136 16.568V21.1939C17.8136 23.873 17.0908 25.9161 15.6452 27.3231C14.2189 28.7109 12.2914 29.4048 9.86286 29.4048ZM9.86286 27.2364C11.6168 27.2364 12.9757 26.716 13.9394 25.6752C14.9031 24.6151 15.385 23.1502 15.385 21.2806V16.4813C15.385 14.6116 14.9031 13.1564 13.9394 12.1156C12.9757 11.0555 11.6168 10.5255 9.86286 10.5255C8.12816 10.5255 6.77895 11.0555 5.81523 12.1156C4.85151 13.1564 4.36965 14.6116 4.36965 16.4813V21.2806C4.36965 23.1502 4.85151 24.6151 5.81523 25.6752C6.77895 26.716 8.12816 27.2364 9.86286 27.2364ZM21.8596 29V8.76186H29.6079C30.8222 8.76186 31.9016 9.00279 32.846 9.48465C33.8097 9.94724 34.5711 10.6122 35.13 11.4796C35.689 12.3469 35.9685 13.3974 35.9685 14.6309V15.0068C35.9685 16.2211 35.6794 17.2715 35.1011 18.1581C34.5422 19.0255 33.7808 19.6905 32.8171 20.153C31.8534 20.6156 30.7837 20.8469 29.6079 20.8469H24.2882V29H21.8596ZM24.2882 18.6496H29.3477C30.6391 18.6496 31.6606 18.3316 32.4123 17.6956C33.1641 17.0402 33.5399 16.1247 33.5399 14.9489V14.6598C33.5399 13.4841 33.1641 12.5782 32.4123 11.9421C31.6799 11.2868 30.6584 10.9591 29.3477 10.9591H24.2882V18.6496ZM39.2235 29V8.76186H51.6844V10.9591H41.6521V17.7245H50.8749V19.9217H41.6521V26.8027H51.829V29H39.2235ZM55.5145 29V8.76186H60.2271L67.2816 27.4677H67.6574V8.76186H70.0571V29H65.3445L58.319 10.2653H57.9142V29H55.5145ZM81.7681 29.4048C80.2647 29.4048 78.9348 29.0964 77.7783 28.4796C76.6411 27.8435 75.7449 26.9184 75.0895 25.7041C74.4535 24.4898 74.1354 22.9864 74.1354 21.1939V16.568C74.1354 13.8889 74.8486 11.8554 76.2749 10.4676C77.7012 9.06061 79.619 8.3571 82.0283 8.3571C84.4183 8.3571 86.2398 9.01243 87.4926 10.3231C88.7454 11.6337 89.3719 13.3877 89.3719 15.585V15.7296H86.9722V15.5272C86.9722 14.5635 86.7987 13.7057 86.4518 12.954C86.1049 12.2023 85.5652 11.6145 84.8327 11.1904C84.1003 10.7471 83.1655 10.5255 82.0283 10.5255C80.3129 10.5255 78.9733 11.0555 78.0096 12.1156C77.0459 13.1564 76.564 14.6213 76.564 16.5102V21.2517C76.564 23.1406 77.0459 24.6151 78.0096 25.6752C78.9733 26.716 80.3225 27.2364 82.0572 27.2364C83.7534 27.2364 84.9966 26.7545 85.7868 25.7908C86.5964 24.8271 87.0011 23.5453 87.0011 21.9456V21.4541H80.8718V19.3724H89.3719V29H87.1746V26.8027H86.7698C86.5578 27.2268 86.259 27.6412 85.8736 28.0459C85.4881 28.4507 84.9677 28.7783 84.3123 29.0289C83.657 29.2795 82.8089 29.4048 81.7681 29.4048ZM93.7999 29V8.76186H101.982C103.235 8.76186 104.333 8.98351 105.278 9.42683C106.242 9.85086 106.993 10.4676 107.533 11.2772C108.073 12.0674 108.342 13.0215 108.342 14.1394V14.4575C108.342 15.7874 108.024 16.8378 107.388 17.6088C106.752 18.3798 106.001 18.9002 105.133 19.17V19.5748C105.827 19.5941 106.396 19.8254 106.839 20.2687C107.302 20.6927 107.533 21.3384 107.533 22.2058V29H105.133V22.4949C105.133 21.9167 104.969 21.4733 104.642 21.1649C104.333 20.8566 103.861 20.7024 103.225 20.7024H96.2284V29H93.7999ZM96.2284 18.5051H101.751C103.081 18.5051 104.102 18.1871 104.815 17.551C105.548 16.8957 105.914 15.9898 105.914 14.8333V14.6309C105.914 13.4745 105.557 12.5782 104.844 11.9421C104.131 11.2868 103.1 10.9591 101.751 10.9591H96.2284V18.5051ZM128.769 29V8.76186H136.518C137.732 8.76186 138.811 9.00279 139.756 9.48465C140.72 9.94724 141.481 10.6122 142.04 11.4796C142.599 12.3469 142.878 13.3974 142.878 14.6309V15.0068C142.878 16.2211 142.589 17.2715 142.011 18.1581C141.452 19.0255 140.691 19.6905 139.727 20.153C138.763 20.6156 137.693 20.8469 136.518 20.8469H131.198V29H128.769ZM131.198 18.6496H136.258C137.549 18.6496 138.57 18.3316 139.322 17.6956C140.074 17.0402 140.45 16.1247 140.45 14.9489V14.6598C140.45 13.4841 140.074 12.5782 139.322 11.9421C138.59 11.2868 137.568 10.9591 136.258 10.9591H131.198V18.6496ZM146.133 29V8.76186H148.562V17.7534H158.045V8.76186H160.473V29H158.045V19.9507H148.562V29H146.133Z" fill="black"/>
<path d="M111.129 14.141V28.3093H125.864V14.141L118.475 7.52907L111.129 14.141Z" stroke="black" stroke-width="1.60575"/>
<path d="M115.463 20.7529L113.679 22.8781L115.463 25.0034M121.625 20.7529L123.408 22.8781L121.625 25.0034M119.314 19.9972L117.693 25.6646" stroke="black" stroke-width="1.60575"/>
<path d="M120.952 15.4634C120.952 16.8197 119.853 17.9192 118.497 17.9192C117.14 17.9192 116.041 16.8197 116.041 15.4634C116.041 14.107 117.14 13.0075 118.497 13.0075C119.853 13.0075 120.952 14.107 120.952 15.4634ZM117.269 15.4634C117.269 16.1413 117.819 16.6909 118.497 16.6909C119.175 16.6909 119.724 16.1413 119.724 15.4634C119.724 14.7854 119.175 14.2358 118.497 14.2358C117.819 14.2358 117.269 14.7854 117.269 15.4634Z" fill="black"/>
</svg>
