<svg width="160" height="40" viewBox="0 0 160 40" fill="none" xmlns="http://www.w3.org/2000/svg">
<path d="M2.59816 31V8.96721H5.24209V28.6079H16.3844V31H2.59816ZM19.7805 31V8.96721H22.4245V31H19.7805ZM27.465 31V8.96721H32.5955L40.2755 29.3318H40.6846V8.96721H43.2971V31H38.1666L30.5181 10.6039H30.0774V31H27.465ZM48.3666 31V8.96721H51.0105V18.5672H51.4512L60.7679 8.96721H64.2932L53.56 19.8577L64.6709 31H61.0512L51.4512 21.2111H51.0105V31H48.3666ZM74.5881 31.4407C71.9651 31.4407 69.8773 30.6852 68.3245 29.1744C66.7717 27.6426 65.9953 25.4184 65.9953 22.5016V17.4656C65.9953 14.5489 66.7717 12.3351 68.3245 10.8243C69.8773 9.29246 71.9651 8.52656 74.5881 8.52656C77.19 8.52656 79.1835 9.25049 80.5684 10.6984C81.9743 12.1462 82.6773 14.1292 82.6773 16.6472V16.8046H80.0648V16.5528C80.0648 14.8951 79.6137 13.5416 78.7114 12.4925C77.83 11.4223 76.4556 10.8872 74.5881 10.8872C72.7205 10.8872 71.2622 11.4643 70.213 12.6184C69.1638 13.7515 68.6392 15.3462 68.6392 17.4026V22.5646C68.6392 24.621 69.1638 26.2262 70.213 27.3803C71.2622 28.5134 72.7205 29.08 74.5881 29.08C76.4556 29.08 77.83 28.5554 78.7114 27.5062C79.6137 26.4361 80.0648 25.0721 80.0648 23.4144V22.9108H82.6773V23.32C82.6773 25.838 81.9743 27.821 80.5684 29.2689C79.1835 30.7167 77.19 31.4407 74.5881 31.4407ZM86.8195 31V8.96721H95.727C97.0909 8.96721 98.287 9.20852 99.3152 9.69115C100.364 10.1528 101.183 10.8243 101.77 11.7056C102.358 12.5659 102.652 13.6046 102.652 14.8216V15.1679C102.652 16.6157 102.305 17.7593 101.613 18.5987C100.92 19.438 100.102 20.0046 99.1578 20.2984V20.739C99.9132 20.76 100.532 21.0118 101.015 21.4944C101.518 21.9561 101.77 22.659 101.77 23.6033V31H99.1578V23.918C99.1578 23.2885 98.9795 22.8059 98.6227 22.4702C98.287 22.1344 97.7729 21.9666 97.0805 21.9666H89.4634V31H86.8195ZM89.4634 19.5744H95.4752C96.9231 19.5744 98.0352 19.2282 98.8116 18.5357C99.609 17.8223 100.008 16.8361 100.008 15.577V15.3567C100.008 14.0977 99.6195 13.122 98.8431 12.4295C98.0667 11.7161 96.9441 11.3593 95.4752 11.3593H89.4634V19.5744ZM124.89 31V8.96721H138.204V11.3593H127.534V18.7561H137.354V21.1482H127.534V31H124.89ZM149.348 31V11.3593H142.266V8.96721H159.073V11.3593H151.992V31H149.348Z" fill="black"/>
<path d="M105.574 15.3949V30.8197H121.615V15.3949L113.572 8.19672L105.574 15.3949Z" stroke="black" stroke-width="1.74814"/>
<path d="M110.292 22.5931L108.35 24.9068L110.292 27.2206M117 22.5931L118.942 24.9068L117 27.2206M114.485 21.7705L112.719 27.9404" stroke="black" stroke-width="1.74814"/>
<path d="M116.268 16.8346C116.268 18.3112 115.071 19.5082 113.595 19.5082C112.118 19.5082 110.921 18.3112 110.921 16.8346C110.921 15.358 112.118 14.1609 113.595 14.1609C115.071 14.1609 116.268 15.358 116.268 16.8346ZM112.258 16.8346C112.258 17.5726 112.857 18.171 113.595 18.171C114.333 18.171 114.931 17.5726 114.931 16.8346C114.931 16.0965 114.333 15.4982 113.595 15.4982C112.857 15.4982 112.258 16.0965 112.258 16.8346Z" fill="black"/>
</svg>
