<svg width="72" height="72" viewBox="0 0 72 72" fill="none" xmlns="http://www.w3.org/2000/svg">
<rect x="0.5" y="0.5" width="71" height="71" rx="35.5" stroke="#25A2DF"/>
<g clip-path="url(#clip0_31_40)">
<path d="M36 60C49.2548 60 60 49.2548 60 36C60 22.7452 49.2548 12 36 12C22.7452 12 12 22.7452 12 36C12 49.2548 22.7452 60 36 60Z" fill="url(#paint0_linear_31_40)"/>
<path fill-rule="evenodd" clip-rule="evenodd" d="M22.8638 35.7466C29.8603 32.6984 34.5257 30.6888 36.8601 29.7179C43.5251 26.9456 44.91 26.4641 45.8127 26.4482C46.0113 26.4447 46.4552 26.4939 46.7427 26.7272C46.9855 26.9242 47.0523 27.1904 47.0843 27.3771C47.1163 27.5639 47.1561 27.9895 47.1244 28.3219C46.7633 32.1169 45.2004 41.3263 44.4053 45.5767C44.0689 47.3752 43.4065 47.9783 42.7652 48.0373C41.3714 48.1655 40.3131 47.1162 38.9632 46.2313C36.8509 44.8467 35.6576 43.9847 33.6072 42.6336C31.2377 41.0721 32.7738 40.2139 34.1242 38.8113C34.4776 38.4442 40.6183 32.8587 40.7372 32.352C40.7521 32.2886 40.7659 32.0524 40.6255 31.9277C40.4852 31.803 40.2781 31.8456 40.1286 31.8795C39.9168 31.9276 36.5423 34.158 30.0053 38.5707C29.0475 39.2284 28.1799 39.5489 27.4026 39.5321C26.5457 39.5135 24.8973 39.0475 23.6719 38.6492C22.1689 38.1606 20.9743 37.9023 21.0783 37.0726C21.1325 36.6404 21.7277 36.1984 22.8638 35.7466Z" fill="white"/>
</g>
<defs>
<linearGradient id="paint0_linear_31_40" x1="36" y1="12" x2="36" y2="59.644" gradientUnits="userSpaceOnUse">
<stop stop-color="#2AABEE"/>
<stop offset="1" stop-color="#229ED9"/>
</linearGradient>
<clipPath id="clip0_31_40">
<rect width="48" height="48" fill="white" transform="translate(12 12)"/>
</clipPath>
</defs>
</svg>
