<svg width="72" height="72" viewBox="0 0 72 72" fill="none" xmlns="http://www.w3.org/2000/svg">
<rect x="0.5" y="0.5" width="71" height="71" rx="35.5" stroke="#1DA1F2"/>
<path d="M27.095 55C45.2083 55 55.1155 39.9942 55.1155 26.9813C55.1155 26.5551 55.1155 26.1308 55.0867 25.7084C57.0141 24.3144 58.6778 22.5884 60 20.6112C58.2028 21.4079 56.2961 21.9302 54.3437 22.1605C56.3996 20.93 57.9383 18.9943 58.6733 16.7138C56.7402 17.861 54.6253 18.6693 52.4198 19.1041C50.935 17.5253 48.9712 16.4799 46.8324 16.1296C44.6935 15.7793 42.4988 16.1437 40.5879 17.1663C38.677 18.1889 37.1564 19.8128 36.2615 21.7866C35.3665 23.7604 35.1471 25.9741 35.6371 28.0852C31.7218 27.8889 27.8915 26.8714 24.3949 25.0989C20.8983 23.3264 17.8135 20.8385 15.3408 17.7966C14.0815 19.9645 13.6957 22.5308 14.2622 24.973C14.8287 27.4152 16.3047 29.5498 18.3898 30.942C16.8225 30.8961 15.2893 30.4733 13.92 29.7095V29.8343C13.9206 32.1078 14.7077 34.3112 16.1477 36.0706C17.5878 37.83 19.5921 39.0372 21.8208 39.4874C20.371 39.8828 18.8497 39.9406 17.3741 39.6563C18.0036 41.6129 19.2289 43.3238 20.8785 44.5499C22.5281 45.776 24.5197 46.4561 26.5747 46.4949C24.5329 48.0998 22.1946 49.2863 19.6937 49.9867C17.1929 50.6871 14.5784 50.8875 12 50.5766C16.5037 53.4664 21.7438 54.9993 27.095 54.9923" fill="#1DA1F2"/>
</svg>
